<svg xmlns="http://www.w3.org/2000/svg" viewBox="0 0 140 85" style="enable-background:new 0 0 140 85" xml:space="preserve"><path d="M56.41 38.86c-.51-2.16-1.13-5.63-1.71-7.9h-.11c-.52 2.28-1.08 5.8-1.54 7.9l-1.53 7h6.43l-1.54-7zm0 0c-.51-2.16-1.13-5.63-1.71-7.9h-.11c-.52 2.28-1.08 5.8-1.54 7.9l-1.53 7h6.43l-1.54-7zM0 .06v84.87h140V.06H0zM38.05 45c0 11.26-5.18 17.23-15.19 17.23-10.07 0-14.79-5.91-14.79-17.4v-21.5h9.84v22.58c0 5.57 1.83 8.3 5.17 8.3 3.36 0 5.13-2.39 5.13-8.3V23.33h9.84V45zm23.2 16.66-2.11-8.47h-8.82l-1.87 8.47H38.43l10.24-38.33h12.74l10.13 38.33H61.25zm28.54.52c-13.31 0-19-8.93-19-19.05 0-13.71 9.39-20.31 19.8-20.31 3.92 0 6.99.74 8.3 1.48l-1.76 7.91c-1.42-.63-3.41-1.2-5.98-1.2-5.46 0-10.01 3.47-10.01 11.55 0 7.28 3.86 11.31 10.13 11.31 2.05 0 4.44-.4 5.8-.9l1.19 7.85c-1.31.62-4.49 1.36-8.47 1.36zm24.8.05c-11.2 0-16.72-9.27-16.72-19.62 0-10.69 6.31-19.84 17.29-19.84 11.78 0 16.77 9.84 16.77 19.22 0 12.97-6.77 20.24-17.34 20.24zm.34-31.51c-4.04 0-6.71 4.32-6.71 11.83 0 7.74 2.67 11.72 6.77 11.72 4.27 0 6.6-4.72 6.6-11.95-.01-6.59-2.34-11.6-6.66-11.6zm-60.23.23h-.11c-.52 2.28-1.08 5.8-1.54 7.9l-1.53 7h6.43l-1.54-7c-.51-2.15-1.14-5.62-1.71-7.9zm1.71 7.91c-.51-2.16-1.13-5.63-1.71-7.9h-.11c-.52 2.28-1.08 5.8-1.54 7.9l-1.53 7h6.43l-1.54-7zm0 0c-.51-2.16-1.13-5.63-1.71-7.9h-.11c-.52 2.28-1.08 5.8-1.54 7.9l-1.53 7h6.43l-1.54-7z" style="fill:#135a7a"/></svg>